<svg xmlns="http://www.w3.org/2000/svg" viewBox="0 0 13.837 18.168"><defs><style>.a{fill:#000000;}</style></defs><path class="a" d="M5.075,19.557c-.036.011-3.936,1.287-4.174,1.287-.548-.032-.667-.584-.717-1.125a8.276,8.276,0,0,1,.011-1.687c.068-.678.2-1.626.872-1.586.173,0,2.419.934,4.063,1.6A.819.819,0,0,1,5.075,19.557Zm2.087-4.106c.065,1.377-.919,1.748-1.7.515L1.629,9.91a.64.64,0,0,1,.191-.627A8.429,8.429,0,0,1,6.2,8.054a.622.622,0,0,1,.5.454c.047.3.415,6.035.465,6.943Zm-.05,5.941c0,.166.007,4.2-.061,4.38a.642.642,0,0,1-.515.4A4.217,4.217,0,0,1,4.7,25.79c-.793-.292-2.044-.775-1.777-1.532.1-.249,1.853-2.264,2.787-3.374A.808.808,0,0,1,7.112,21.392Zm6.5-4.247c-.2.133-3.994,1.017-4.257,1.1l.011-.022a.818.818,0,0,1-.84-1.247c.133-.133,2.376-3.331,2.624-3.5a.632.632,0,0,1,.66-.022,6.278,6.278,0,0,1,2.069,3.05A.669.669,0,0,1,13.608,17.145Zm.364,4.712a6.2,6.2,0,0,1-2.3,2.92.606.606,0,0,1-.638-.072c-.18-.126-2.228-3.5-2.34-3.688a.817.817,0,0,1,.923-1.2s3.983,1.287,4.135,1.42A.612.612,0,0,1,13.972,21.857Z" transform="translate(-0.145 -8.022)"/></svg>