<?xml version="1.0" standalone="no"?>
<!DOCTYPE svg PUBLIC "-//W3C//DTD SVG 20010904//EN"
 "http://www.w3.org/TR/2001/REC-SVG-20010904/DTD/svg10.dtd">
<svg version="1.0" xmlns="http://www.w3.org/2000/svg"
 width="700.000000pt" height="700.000000pt" viewBox="0 0 700.000000 700.000000"
 preserveAspectRatio="xMidYMid meet">
<metadata>
Created by potrace 1.11, written by Peter Selinger 2001-2013
</metadata>
<g transform="translate(0.000000,700.000000) scale(0.100000,-0.100000)"
fill="#000000" stroke="none">
<path d="M51 6803 c87 -336 175 -725 229 -1013 41 -220 39 -210 46 -255 6 -45
9 -64 23 -155 6 -36 13 -74 15 -85 4 -24 14 -94 21 -155 3 -25 12 -97 20 -160
8 -63 17 -144 20 -180 3 -36 8 -78 10 -95 2 -16 7 -73 10 -125 4 -52 8 -111
10 -130 19 -187 25 -804 11 -1065 -12 -213 -12 -242 -4 -318 20 -190 53 -301
154 -512 59 -123 80 -189 99 -308 13 -76 13 -248 1 -307 -3 -14 -8 -38 -12
-55 -61 -314 -221 -802 -387 -1182 -20 -46 -34 -83 -31 -83 4 0 16 25 97 206
73 162 254 624 368 939 22 61 44 119 49 130 5 11 21 52 35 90 34 92 94 202
152 278 38 51 162 197 183 217 21 19 114 134 143 176 59 86 107 189 121 264 3
14 7 35 10 47 24 111 25 636 1 893 -14 147 -18 187 -20 202 -2 9 -6 44 -10 77
-3 33 -8 70 -11 83 -3 13 -14 75 -24 138 -50 292 -151 659 -258 940 -108 281
-277 626 -393 804 -22 32 -39 60 -39 63 0 5 -121 185 -130 193 -3 3 -23 31
-44 62 -21 32 -46 65 -55 75 -9 10 -43 52 -76 93 -92 114 -361 400 -377 400
-3 0 17 -84 43 -187z"/>
<path d="M2083 6198 c0 -7 -4 -98 -7 -203 -14 -376 -15 -412 -21 -540 -8 -176
-20 -364 -30 -465 -2 -19 -6 -69 -9 -110 -4 -41 -9 -91 -11 -110 -3 -19 -7
-57 -10 -85 -12 -107 -16 -141 -21 -177 -3 -21 -7 -50 -9 -65 -2 -15 -10 -71
-19 -123 -8 -52 -18 -115 -21 -140 -4 -25 -13 -72 -20 -105 -8 -33 -16 -71
-19 -85 -3 -14 -19 -88 -35 -165 -36 -173 -37 -322 -1 -445 102 -352 107 -437
44 -650 -14 -47 -34 -109 -45 -138 -27 -74 -226 -479 -289 -586 -96 -166 -260
-413 -313 -474 -11 -12 -16 -22 -11 -22 18 1 259 329 376 512 130 204 180 292
295 518 52 102 101 192 109 201 8 8 14 19 14 23 0 23 152 203 283 336 168 170
227 248 269 356 25 64 57 190 73 284 7 42 16 98 21 124 25 142 25 614 0 796
-2 14 -7 48 -10 75 -7 53 -13 85 -21 125 -3 14 -8 40 -11 58 -30 182 -123 482
-222 717 -84 198 -327 615 -329 563z"/>
<path d="M3370 5228 c-12 -40 -32 -109 -45 -153 -14 -44 -38 -132 -55 -195
-35 -129 -85 -290 -105 -335 -7 -16 -29 -78 -49 -136 -72 -213 -75 -293 -15
-489 53 -175 44 -253 -51 -455 -43 -91 -150 -262 -204 -325 -36 -44 65 61 145
150 42 47 90 101 105 120 16 19 34 40 40 45 6 6 47 55 92 110 88 110 112 131
251 225 52 34 115 83 141 109 166 164 193 529 68 896 -27 79 -98 231 -145 308
-35 59 -139 197 -148 197 -2 0 -14 -33 -25 -72z"/>
<path d="M4248 3765 c-1 -1 -22 -5 -46 -9 -118 -16 -236 -69 -303 -136 -25
-25 -74 -88 -109 -140 -91 -136 -116 -165 -200 -232 -86 -69 -158 -130 -280
-239 -95 -86 -210 -195 -171 -163 180 145 448 279 579 288 66 4 82 2 212 -37
47 -14 103 -28 125 -32 110 -19 234 3 420 75 133 51 214 76 510 161 138 39
265 75 284 81 l33 10 -28 27 c-52 51 -197 143 -309 197 -145 70 -258 107 -415
136 -52 9 -294 20 -302 13z"/>
<path d="M4069 2696 c-2 -2 -41 -7 -85 -10 -92 -8 -96 -8 -249 -37 -195 -36
-320 -81 -425 -152 -25 -17 -119 -106 -210 -198 -91 -92 -196 -188 -235 -215
-38 -26 -144 -85 -235 -132 -242 -123 -298 -155 -473 -260 -206 -123 -503
-331 -612 -427 -16 -15 -7 -11 20 9 231 168 444 295 732 437 426 210 628 261
828 208 22 -6 47 -13 55 -14 8 -2 49 -13 90 -25 41 -11 118 -30 170 -41 139
-30 270 -20 540 44 58 14 119 27 135 30 17 3 77 13 135 22 58 9 116 18 130 21
14 2 44 7 66 10 23 2 52 7 64 9 12 2 49 7 83 10 34 3 80 8 102 12 51 7 80 10
185 17 47 4 101 9 120 11 46 5 165 14 265 20 44 2 127 7 185 10 58 3 168 7
245 10 401 13 510 17 513 20 5 5 -191 132 -286 185 -106 59 -265 135 -367 174
-38 15 -79 31 -90 36 -17 8 -129 45 -240 80 -128 40 -428 102 -559 116 -33 3
-69 8 -80 11 -25 6 -511 14 -517 9z"/>
<path d="M1209 1483 c-13 -16 -12 -17 4 -4 9 7 17 15 17 17 0 8 -8 3 -21 -13z"/>
<path d="M3147 1464 c-1 -1 -36 -4 -77 -8 -232 -20 -361 -82 -589 -285 -141
-127 -237 -202 -309 -247 -40 -24 -75 -44 -77 -44 -3 0 -24 -9 -48 -19 -23
-11 -105 -42 -182 -71 -77 -28 -149 -55 -160 -60 -11 -5 -65 -26 -120 -46 -55
-20 -111 -41 -125 -47 -14 -6 -29 -11 -35 -13 -17 -4 -437 -170 -485 -191
-266 -117 -342 -153 -324 -153 10 0 80 30 116 50 52 29 393 159 553 210 33 11
74 24 90 30 90 29 292 83 427 115 302 72 521 49 779 -80 165 -83 292 -121 479
-143 73 -8 99 -8 320 4 191 10 688 10 870 1 270 -15 335 -19 450 -32 25 -2 70
-7 100 -10 30 -3 91 -10 135 -15 44 -5 103 -12 130 -15 124 -14 135 -16 220
-30 17 -3 62 -10 100 -15 39 -6 77 -12 85 -15 8 -2 39 -7 69 -10 30 -4 63 -9
75 -11 12 -2 35 -7 51 -10 17 -3 84 -16 150 -29 66 -13 134 -27 150 -30 75
-13 98 -18 221 -46 73 -16 140 -31 150 -34 69 -14 208 -46 214 -50 3 -2 20 -6
36 -9 30 -6 274 -68 357 -91 26 -8 47 -11 47 -8 0 10 -213 218 -301 294 -108
93 -115 99 -224 181 -49 37 -95 72 -100 76 -37 30 -290 191 -387 246 -178 101
-403 209 -578 278 -41 16 -84 33 -95 38 -70 31 -340 118 -490 158 -205 56
-525 120 -682 138 -26 3 -58 7 -70 9 -12 2 -57 7 -100 10 -43 4 -89 9 -103 11
-59 7 -705 24 -713 18z"/>
<path d="M1179 1443 c-13 -16 -12 -17 4 -4 9 7 17 15 17 17 0 8 -8 3 -21 -13z"/>
<path d="M1489 1223 c-13 -16 -12 -17 4 -4 16 13 21 21 13 21 -2 0 -10 -8 -17
-17z"/>
<path d="M257 575 c-24 -50 -20 -58 4 -12 11 22 19 41 17 43 -3 2 -12 -12 -21
-31z"/>
<path d="M568 264 c-38 -20 -36 -28 2 -9 17 9 30 18 30 20 0 7 -1 6 -32 -11z"/>
<path d="M480 220 c-9 -6 -10 -10 -3 -10 6 0 15 5 18 10 8 12 4 12 -15 0z"/>
</g>
</svg>
