<?xml version="1.0" encoding="utf-8"?>
<!-- Generator: Adobe Illustrator 23.0.0, SVG Export Plug-In . SVG Version: 6.00 Build 0)  -->
<svg version="1.1" id="Layer_1" xmlns="http://www.w3.org/2000/svg" xmlns:xlink="http://www.w3.org/1999/xlink" x="0px" y="0px"
	 viewBox="0 0 60 60" style="enable-background:new 0 0 60 60;" xml:space="preserve">
<style type="text/css">
	.st0{fill:none;stroke:#000000;stroke-width:2;stroke-linecap:round;stroke-miterlimit:10;}
</style>
<g>
	<path class="st0" d="M54.5,4.7c0.1,0,1.1,0.6,1.1,1.5c0.1,1-1,2-1.9,2c-1.3,0-2.5-2-2.3-3.7c0.2-1.6,1.6-2.9,3-3
		c2.1-0.2,3.6,2.4,3.6,2.5c2.2,4-3.3,9.7-7.1,17.2c-6.2,12.3-7.1,28.4-1.9,31.7c2.4,1.5,6.4,0.6,7.8-1.5c1.9-2.8-0.5-7.8-3.4-10.5
		c-5.1-4.6-14.9-4.8-20.3,0.5C28,46.4,27.6,56,30.6,58c1.8,1.2,5.3,0.3,6.4-1.9c0.7-1.4,0.4-3.8-1.1-4.6c-1-0.5-2.5-0.6-3.4,0.5
		c-0.6,0.7-0.8,1.9-0.1,2.8c0.6,0.8,1.5,0.8,1.7,0.9"/>
	<path class="st0" d="M4.6,54.6c0.1,0.1,0.6,1,1.5,1.1c1,0.1,1.9-1,1.9-1.9c0-1.3-2-2.5-3.7-2.3c-1.6,0.2-2.9,1.6-3,3
		c-0.1,2.1,2.4,3.5,2.5,3.6c4,2.2,9.7-3.3,17.2-7.1c12.3-6.2,28.4-7.1,31.7-1.9c1.5,2.4,0.6,6.4-1.5,7.8c-2.8,1.9-7.8-0.5-10.5-3.4
		c-4.6-5.1-4.8-14.9,0.5-20.3c5.2-5.3,14.7-5.6,16.7-2.6c1.2,1.8,0.3,5.3-1.9,6.4c-1.4,0.7-3.8,0.4-4.6-1.1c-0.5-1-0.6-2.5,0.5-3.4
		c0.7-0.6,1.9-0.8,2.8-0.1c0.8,0.6,0.9,1.5,0.9,1.7"/>
</g>
</svg>
