<?xml version="1.0" encoding="utf-8"?>
<!-- Generator: Adobe Illustrator 23.0.0, SVG Export Plug-In . SVG Version: 6.00 Build 0)  -->
<svg version="1.1" id="Layer_1" xmlns="http://www.w3.org/2000/svg" xmlns:xlink="http://www.w3.org/1999/xlink" x="0px" y="0px"
	 viewBox="0 0 60 60" style="enable-background:new 0 0 60 60;" xml:space="preserve">
<style type="text/css">
	.st0{fill:none;stroke:#000000;stroke-width:2;stroke-linecap:round;stroke-miterlimit:10;}
</style>
<g>
	<path class="st0" d="M25.8,55.6c0.2,0,1.1-0.1,1.7-0.9c0.6-0.9,0.4-2.1-0.1-2.8c-0.8-1-2.4-1-3.4-0.5c-1.5,0.9-1.8,3.2-1.1,4.6
		c1,2.1,4.6,3,6.4,1.9c3-2,2.7-11.6-2.6-16.7c-5.4-5.3-15.2-5.1-20.3-0.5C3.5,43.4,1.1,48.5,3,51.2c1.4,2.1,5.4,3,7.8,1.5
		c5.2-3.3,4.3-19.4-1.9-31.7C5.1,13.5-0.5,7.8,1.8,3.9c0.1-0.2,1.5-2.7,3.6-2.5c1.4,0.1,2.8,1.4,3,3c0.2,1.8-1,3.7-2.3,3.7
		c-0.9,0-2-0.9-1.9-2c0.1-0.9,1-1.4,1.1-1.5"/>
	<path class="st0" d="M4.4,34.2c0-0.2,0.1-1.1,0.9-1.7C6.1,31.8,7.3,32,8,32.6c1,0.8,1,2.4,0.5,3.4c-0.8,1.5-3.2,1.8-4.6,1.1
		c-2.1-1-3-4.6-1.9-6.4c2-3,11.5-2.7,16.7,2.6c5.3,5.4,5.1,15.2,0.5,20.3c-2.7,2.9-7.7,5.3-10.5,3.4c-2.1-1.4-3-5.4-1.5-7.8
		c3.3-5.2,19.4-4.3,31.7,1.9c7.6,3.8,13.2,9.4,17.2,7.1c0.2-0.1,2.7-1.5,2.5-3.6c-0.1-1.4-1.4-2.8-3-3c-1.8-0.2-3.7,1-3.7,2.3
		c0,0.9,0.9,2,1.9,1.9c0.9-0.1,1.4-1,1.5-1.1"/>
</g>
</svg>
