<svg xmlns="http://www.w3.org/2000/svg" viewBox="0 0 60 60"><defs><style>.a{fill:#b40e1b;}</style></defs><title>corner-flourish-br</title><path class="a" d="M57.8,56.43a49.91,49.91,0,0,1-5.15-13.77,5.76,5.76,0,0,1,.08-3.75c.42-1.31,1.32-2.64,1.75-3.85a5.42,5.42,0,0,0,.42-1.77,16.32,16.32,0,0,0-.09-1.71c-.12-1.13-.1-2.27-.17-3.41a81.93,81.93,0,0,1,.88-13.83A131.55,131.55,0,0,1,58.6,0a31.65,31.65,0,0,0-5,5.85,39.38,39.38,0,0,0-3.72,6.85,43.94,43.94,0,0,0-2.42,7.49,49.35,49.35,0,0,0-1.06,7.86c0,.66,0,1.33,0,2s0,1.33,0,2a10.94,10.94,0,0,0,.15,2,6.44,6.44,0,0,0,.79,1.91,33.2,33.2,0,0,0,2.9,3.46,8.92,8.92,0,0,1,1.1,1.7,14.08,14.08,0,0,1,.58,1.77A63.16,63.16,0,0,0,57.8,56.43Z"/><path class="a" d="M49.71,47.72a38.42,38.42,0,0,1-5.86-9.22c-.37-.84-.72-1.67-1-2.53a5.23,5.23,0,0,1-.47-2.71,20.69,20.69,0,0,1,.73-3,5.36,5.36,0,0,0,.16-2.67,74.35,74.35,0,0,1-1.57-10.12c-.33-3.48-.42-7-.54-10.92a25.11,25.11,0,0,0-4.47,10.65A31.75,31.75,0,0,0,36.75,29a5.37,5.37,0,0,0,1.44,2.67c.76.8,1.66,1.52,2.38,2.26A6.4,6.4,0,0,1,41.46,35c.25.4.41.83.62,1.25.39.84.81,1.66,1.25,2.47A49.36,49.36,0,0,0,49.71,47.72Z"/><path class="a" d="M35.29,32.92a13.61,13.61,0,0,1-2.67-4.25c-.15-.39-.29-.78-.41-1.18a2,2,0,0,1,0-1.33c.13-.48.43-1,.6-1.46a1.56,1.56,0,0,0,.11-1.18c-.44-1.37-.89-2.78-1.31-4.3s-.83-3.13-1.43-5a10.27,10.27,0,0,0-2.64,5,13.55,13.55,0,0,0,0,5.74,2.19,2.19,0,0,0,.86,1.24c.46.34,1,.62,1.5.91a3.11,3.11,0,0,1,1.07,1c.25.36.52.71.79,1.06A36,36,0,0,0,35.29,32.92Z"/><path class="a" d="M56.43,57.8a49.91,49.91,0,0,0-13.77-5.15,5.76,5.76,0,0,0-3.75.08c-1.31.42-2.64,1.32-3.85,1.75a5.42,5.42,0,0,1-1.77.42,16.32,16.32,0,0,1-1.71-.09c-1.13-.12-2.27-.1-3.41-.17a81.93,81.93,0,0,0-13.83.88A131.55,131.55,0,0,0,0,58.6a31.65,31.65,0,0,1,5.85-5,39.38,39.38,0,0,1,6.85-3.72,43.94,43.94,0,0,1,7.49-2.42,49.35,49.35,0,0,1,7.86-1.06c.66,0,1.33,0,2,0s1.33,0,2,0a10.94,10.94,0,0,1,2,.15,6.44,6.44,0,0,1,1.91.79,33.2,33.2,0,0,1,3.46,2.9,8.92,8.92,0,0,0,1.7,1.1,14.08,14.08,0,0,0,1.77.58A63.16,63.16,0,0,1,56.43,57.8Z"/><path class="a" d="M47.72,49.71a38.42,38.42,0,0,0-9.22-5.86c-.84-.37-1.67-.72-2.53-1a5.23,5.23,0,0,0-2.71-.47,20.69,20.69,0,0,0-3,.73,5.36,5.36,0,0,1-2.67.16,74.35,74.35,0,0,0-10.12-1.57c-3.48-.33-7-.42-10.92-.54a25.11,25.11,0,0,1,10.65-4.47,31.75,31.75,0,0,1,11.74.1,5.37,5.37,0,0,1,2.67,1.44c.8.76,1.52,1.66,2.26,2.38a6.4,6.4,0,0,0,1.16.89c.4.25.83.41,1.25.62.84.39,1.66.81,2.47,1.25A49.36,49.36,0,0,1,47.72,49.71Z"/><path class="a" d="M32.92,35.29a13.61,13.61,0,0,0-4.25-2.67c-.39-.15-.78-.29-1.18-.41a2,2,0,0,0-1.33,0c-.48.13-1,.43-1.46.6a1.56,1.56,0,0,1-1.18.11c-1.37-.44-2.78-.89-4.3-1.31s-3.13-.83-5-1.43a10.27,10.27,0,0,1,5-2.64,13.55,13.55,0,0,1,5.74,0,2.19,2.19,0,0,1,1.24.86c.34.46.62,1,.91,1.5a3.11,3.11,0,0,0,1,1.07c.36.25.71.52,1.06.79A36,36,0,0,1,32.92,35.29Z"/></svg>