<?xml version="1.0" encoding="utf-8"?>
<!-- Generator: Adobe Illustrator 23.0.0, SVG Export Plug-In . SVG Version: 6.00 Build 0)  -->
<svg version="1.1" id="Layer_1" xmlns="http://www.w3.org/2000/svg" xmlns:xlink="http://www.w3.org/1999/xlink" x="0px" y="0px"
	 viewBox="0 0 60 60" style="enable-background:new 0 0 60 60;" xml:space="preserve">
<style type="text/css">
	.st0{fill:none;stroke:#000000;stroke-width:2;stroke-linecap:round;stroke-miterlimit:10;}
</style>
<g>
	<path class="st0" d="M34.1,4.5c-0.2,0-1.1,0.1-1.7,0.9c-0.6,0.9-0.4,2.1,0.1,2.8c0.8,1,2.4,1,3.4,0.5C37.4,7.8,37.7,5.4,37,4
		c-1-2.1-4.6-3-6.4-1.9c-3,2-2.7,11.6,2.6,16.7c5.4,5.3,15.2,5.1,20.3,0.5c2.9-2.7,5.3-7.7,3.4-10.5c-1.4-2.1-5.4-3-7.8-1.5
		C43.9,10.6,44.8,26.7,51,39c3.8,7.6,9.4,13.2,7.1,17.2c-0.1,0.2-1.5,2.7-3.6,2.5c-1.4-0.1-2.8-1.4-3-3c-0.2-1.8,1-3.7,2.3-3.7
		c0.9,0,2,0.9,1.9,2c-0.1,0.9-1,1.4-1.1,1.5"/>
	<path class="st0" d="M55.5,25.9c0,0.2-0.1,1.1-0.9,1.7c-0.9,0.6-2.1,0.4-2.8-0.1c-1-0.8-1-2.4-0.5-3.4c0.8-1.5,3.2-1.8,4.6-1.1
		c2.1,1,3,4.6,1.9,6.4c-2,3-11.5,2.7-16.7-2.6c-5.3-5.4-5.1-15.2-0.5-20.3c2.7-2.9,7.7-5.3,10.5-3.4c2.1,1.4,3,5.4,1.5,7.8
		C49.4,16.1,33.3,15.2,21,9C13.4,5.2,7.8-0.4,3.8,1.9C3.6,2,1.1,3.4,1.3,5.5c0.1,1.4,1.4,2.8,3,3C6.1,8.8,8,7.5,8,6.2
		c0-0.9-0.9-2-1.9-1.9c-0.9,0.1-1.4,1-1.5,1.1"/>
</g>
</svg>
