<svg xmlns="http://www.w3.org/2000/svg" viewBox="0 0 60 60"><defs><style>.a{fill:#b40e1b;}</style></defs><title>corner-flourish-tl</title><path class="a" d="M28.2,20.08c-2,.26-1.65-3.25.57-2.72s1.51,3.65-.44,4a2.78,2.78,0,0,1-3.17-3,3.44,3.44,0,0,1,3.49-3.22,4.34,4.34,0,0,1,4.1,3.1c.57,2-.58,4-2.09,5.24-3.34,2.82-7.74,1.61-10.53-1.36A8.48,8.48,0,0,1,19.6,10.8C22.37,7.63,27,6.54,31,6.12a43.39,43.39,0,0,1,13.4.73c4,.83,8.38,2.14,11.5,4.88a7.84,7.84,0,0,1,2.87,5.91c-.1,1.86-2.17,4.12-4.17,3.33s-2.26-3.92.11-4.35a1.76,1.76,0,0,1,2,1.4c.19,1.05-.88,1.67-1.81,1.58,2.68.46,2.46-3.43,0-3.39s-3,3-1.65,4.62c1.65,1.93,4.42,1,5.76-.83,1.5-2,.82-4.82-.26-6.86C56.44,8.76,50.63,6.68,46.14,5.5A43.09,43.09,0,0,0,30.08,4.28c-4.65.56-10,2.09-12.75,6.21A10.54,10.54,0,0,0,19,23.73c3.55,3.43,9,4.46,12.86.93a7,7,0,0,0,2.51-5.84,5.67,5.67,0,0,0-3.9-4.68,4.81,4.81,0,0,0-6.14,2.93,3.79,3.79,0,0,0,3,5c2.31.27,4.67-2.52,2.73-4.49a2,2,0,0,0-3.14.19C26.32,18.77,26.88,20.36,28.2,20.08Z"/><path class="a" d="M20,28.26c.26-2-3.25-1.65-2.72.57s3.65,1.51,4-.45a2.77,2.77,0,0,0-3-3.16,3.44,3.44,0,0,0-3.22,3.49,4.34,4.34,0,0,0,3.1,4.1c2,.56,4-.59,5.24-2.09,2.82-3.34,1.61-7.74-1.35-10.54a8.49,8.49,0,0,0-11.35-.52c-3.17,2.76-4.26,7.41-4.68,11.41a43.7,43.7,0,0,0,.73,13.4c.84,4,2.14,8.38,4.88,11.5a7.85,7.85,0,0,0,5.91,2.86c1.86-.1,4.13-2.16,3.33-4.16s-3.92-2.26-4.35.11a1.76,1.76,0,0,0,1.4,2c1.05.2,1.67-.87,1.58-1.81.46,2.68-3.43,2.46-3.39,0s3-3,4.63-1.64c1.92,1.65,1,4.42-.83,5.76-2,1.5-4.82.82-6.87-.26C8.7,56.49,6.62,50.68,5.44,46.19A43.28,43.28,0,0,1,4.22,30.13c.57-4.64,2.09-10,6.22-12.74a10.51,10.51,0,0,1,13.23,1.68c3.43,3.54,4.47,9,.94,12.85a7,7,0,0,1-5.84,2.52,5.65,5.65,0,0,1-4.68-3.9A4.81,4.81,0,0,1,17,24.4a3.79,3.79,0,0,1,5,3c.27,2.3-2.52,4.67-4.49,2.73A2,2,0,0,1,17.75,27C18.71,26.38,20.3,26.94,20,28.26Z"/></svg>