<svg xmlns="http://www.w3.org/2000/svg" viewBox="0 0 60 60"><defs><style>path{fill:#B40E1B;}</style></defs><title>corner-flourish-br</title><path d="M11.9,46.66c1.52-.33,2.89-1.89,2.08-3.46a3,3,0,0,0-4.06-1.27,3.76,3.76,0,0,0-1.75,4.42,4.89,4.89,0,0,0,3.89,2.89c3.27.37,6-3.49,5.36-6.5-.69-3.45-4.74-6-8.12-5.25s-6.15,4.26-6.59,7.65C2.18,49.21,4.46,52.63,8,54.47s7.9,2,11.82,2a53.27,53.27,0,0,0,12.39-1.4c7-1.63,15.31-5.18,17.87-12.47,1.17-3.32,1.22-7.63-1.5-10.21-2.41-2.28-6.69-3.44-9.81-2.06-3.85,1.71-2.48,6.93-.88,9.78a12.69,12.69,0,0,0,8.29,6.26c3.35.78,7.28.32,9.49-2.57,2.1-2.73,2.51-7.5.24-10.26-1.22-1.48-3-1.47-4.76-1.22a52.89,52.89,0,0,1-5.87.74,22.73,22.73,0,0,1-11.34-2.68c-2.85-1.63-6.2-5.39-4.11-8.87,1-1.64,3.17-1.57,4.55-.48a2.42,2.42,0,0,1-.41,4,1.72,1.72,0,0,1-2.23-2.51,1.67,1.67,0,0,0,2.64,2c1.45-1.33.27-3.32-1.29-3.79C30.84,20.12,29.69,22,29.84,24a6.64,6.64,0,0,0,3.09,4.78c3.29,2.4,8.25,3.35,12.25,3.16,2.13-.1,4.19-.63,6.29-.92,1.91-.26,3.85-.06,5.23,1.42,2.77,2.95,2.64,8,.76,11.4-2,3.62-6.17,4.91-10.11,4.46A14.49,14.49,0,0,1,37.06,42.2c-2.12-3.08-3.89-8-1.61-11.47s7.43-3.29,10.87-1.95a9.82,9.82,0,0,1,6.46,9.15c.24,8.92-7.42,14.67-15,17.43a49.39,49.39,0,0,1-13,2.7,45,45,0,0,1-13.65-.67c-3.9-.92-7.7-3.29-9.2-7.16A10.69,10.69,0,0,1,4.26,39a8.16,8.16,0,0,1,10.53-1.49c3.54,2.23,4.93,6.64,2.2,10.09A5.64,5.64,0,0,1,12.2,50,5.54,5.54,0,0,1,7.81,46.9a4.15,4.15,0,0,1,1.39-5A3.31,3.31,0,0,1,14.12,43C15,44.71,13.56,46.36,11.9,46.66Z"/><path d="M46.66,11.9c-.33,1.52-1.89,2.89-3.46,2.08a3,3,0,0,1-1.27-4.06,3.76,3.76,0,0,1,4.42-1.75,4.89,4.89,0,0,1,2.89,3.89c.37,3.27-3.49,6-6.5,5.36-3.45-.69-6-4.74-5.25-8.12s4.26-6.15,7.65-6.59c4.07-.53,7.49,1.75,9.33,5.26s2,7.9,2,11.82a53.27,53.27,0,0,1-1.4,12.39c-1.63,7-5.18,15.31-12.47,17.87-3.32,1.17-7.63,1.22-10.21-1.5-2.28-2.41-3.44-6.69-2.06-9.81,1.71-3.85,6.93-2.48,9.78-.88a12.69,12.69,0,0,1,6.26,8.29c.78,3.35.32,7.28-2.57,9.49-2.73,2.1-7.5,2.51-10.26.24-1.48-1.22-1.47-3-1.22-4.76a52.89,52.89,0,0,0,.74-5.87,22.73,22.73,0,0,0-2.68-11.34c-1.63-2.85-5.39-6.2-8.87-4.11-1.64,1-1.57,3.17-.48,4.55a2.42,2.42,0,0,0,4-.41,1.72,1.72,0,0,0-2.51-2.23,1.67,1.67,0,0,1,2,2.64c-1.33,1.45-3.32.27-3.79-1.29C20.12,30.84,22,29.69,24,29.84a6.64,6.64,0,0,1,4.78,3.09c2.4,3.29,3.35,8.25,3.16,12.25-.1,2.13-.63,4.19-.92,6.29-.26,1.91-.06,3.85,1.42,5.23,2.95,2.77,8,2.64,11.4.76,3.62-2,4.91-6.17,4.46-10.11A14.49,14.49,0,0,0,42.2,37.06c-3.08-2.12-8-3.89-11.47-1.61s-3.29,7.43-1.95,10.87a9.82,9.82,0,0,0,9.15,6.46c8.92.24,14.67-7.42,17.43-15a49.39,49.39,0,0,0,2.7-13,45,45,0,0,0-.67-13.65c-.92-3.9-3.29-7.7-7.16-9.2A10.69,10.69,0,0,0,39,4.26a8.16,8.16,0,0,0-1.49,10.53c2.23,3.54,6.64,4.93,10.09,2.2A5.64,5.64,0,0,0,50,12.2,5.54,5.54,0,0,0,46.9,7.81a4.15,4.15,0,0,0-5,1.39A3.31,3.31,0,0,0,43,14.12C44.71,15,46.36,13.56,46.66,11.9Z"/></svg>