<svg xmlns="http://www.w3.org/2000/svg" viewBox="0 0 60 60"><title>corner-flourish-bl</title><path d="M48.1,46.66c-1.52-.33-2.89-1.89-2.08-3.46a3,3,0,0,1,4.06-1.27,3.76,3.76,0,0,1,1.75,4.42,4.89,4.89,0,0,1-3.89,2.89c-3.27.37-6-3.49-5.36-6.5.69-3.45,4.74-6,8.12-5.25s6.15,4.26,6.59,7.65c.53,4.07-1.75,7.49-5.26,9.33s-7.9,2-11.82,2a53.27,53.27,0,0,1-12.39-1.4C20.87,53.44,12.51,49.89,10,42.6,8.78,39.28,8.73,35,11.45,32.39c2.41-2.28,6.69-3.44,9.81-2.06,3.85,1.71,2.48,6.93.88,9.78a12.69,12.69,0,0,1-8.29,6.26c-3.35.78-7.28.32-9.49-2.57-2.1-2.73-2.51-7.5-.24-10.26,1.22-1.48,3-1.47,4.76-1.22a52.89,52.89,0,0,0,5.87.74,22.73,22.73,0,0,0,11.34-2.68c2.85-1.63,6.2-5.39,4.11-8.87-1-1.64-3.17-1.57-4.55-.48a2.42,2.42,0,0,0,.41,4,1.72,1.72,0,0,0,2.23-2.51,1.67,1.67,0,0,1-2.64,2c-1.45-1.33-.27-3.32,1.29-3.79,2.22-.67,3.37,1.25,3.22,3.22a6.64,6.64,0,0,1-3.09,4.78c-3.29,2.4-8.25,3.35-12.25,3.16-2.13-.1-4.19-.63-6.29-.92C6.62,30.77,4.68,31,3.3,32.45c-2.77,2.95-2.64,8-.76,11.4,2,3.62,6.17,4.91,10.11,4.46A14.49,14.49,0,0,0,22.94,42.2c2.12-3.08,3.89-8,1.61-11.47s-7.43-3.29-10.87-1.95a9.82,9.82,0,0,0-6.46,9.15c-.24,8.92,7.42,14.67,15,17.43a49.39,49.39,0,0,0,13,2.7A45,45,0,0,0,49,57.39c3.9-.92,7.7-3.29,9.2-7.16A10.69,10.69,0,0,0,55.74,39a8.16,8.16,0,0,0-10.53-1.49c-3.54,2.23-4.93,6.64-2.2,10.09A5.64,5.64,0,0,0,47.8,50a5.54,5.54,0,0,0,4.39-3.08,4.15,4.15,0,0,0-1.39-5A3.31,3.31,0,0,0,45.88,43C45,44.71,46.44,46.36,48.1,46.66Z"/><path d="M13.34,11.9c.33,1.52,1.89,2.89,3.46,2.08a3,3,0,0,0,1.27-4.06,3.76,3.76,0,0,0-4.42-1.75,4.89,4.89,0,0,0-2.89,3.89c-.37,3.27,3.49,6,6.5,5.36,3.45-.69,5.95-4.74,5.25-8.12s-4.26-6.15-7.65-6.59C10.79,2.18,7.37,4.46,5.53,8s-2,7.9-2,11.82a53.27,53.27,0,0,0,1.4,12.39c1.63,7,5.18,15.31,12.47,17.87,3.32,1.17,7.63,1.22,10.21-1.5,2.28-2.41,3.44-6.69,2.06-9.81-1.71-3.85-6.93-2.48-9.78-.88a12.69,12.69,0,0,0-6.26,8.29c-.78,3.35-.32,7.28,2.57,9.49,2.73,2.1,7.5,2.51,10.26.24,1.48-1.22,1.47-3,1.22-4.76a52.89,52.89,0,0,1-.74-5.87,22.73,22.73,0,0,1,2.68-11.34c1.63-2.85,5.39-6.2,8.87-4.11,1.64,1,1.57,3.17.48,4.55a2.42,2.42,0,0,1-4-.41,1.72,1.72,0,0,1,2.51-2.23,1.67,1.67,0,0,0-2,2.64c1.33,1.45,3.32.27,3.79-1.29.67-2.22-1.25-3.37-3.22-3.22a6.64,6.64,0,0,0-4.78,3.09c-2.4,3.29-3.35,8.25-3.16,12.25.1,2.13.63,4.19.92,6.29.26,1.91.06,3.85-1.42,5.23-2.95,2.77-8,2.64-11.4.76-3.62-2-4.91-6.17-4.46-10.11A14.49,14.49,0,0,1,17.8,37.06c3.08-2.12,8-3.89,11.47-1.61s3.29,7.43,1.95,10.87a9.82,9.82,0,0,1-9.15,6.46c-8.92.24-14.67-7.42-17.43-15a49.39,49.39,0,0,1-2.7-13,45,45,0,0,1,.67-13.65c.92-3.9,3.29-7.7,7.16-9.2A10.69,10.69,0,0,1,21,4.26a8.16,8.16,0,0,1,1.49,10.53c-2.23,3.54-6.64,4.93-10.09,2.2A5.64,5.64,0,0,1,10,12.2,5.54,5.54,0,0,1,13.1,7.81a4.15,4.15,0,0,1,5,1.39A3.31,3.31,0,0,1,17,14.12C15.29,15,13.64,13.56,13.34,11.9Z"/></svg>