<svg xmlns="http://www.w3.org/2000/svg" viewBox="0 0 16.415 16.731"><defs><style>path{fill:#B40E1B;}</style></defs><path class="a" d="M222.866,690.1h7.892a8.7,8.7,0,0,1,.158,1.421,8.517,8.517,0,0,1-1.026,4.262,6.762,6.762,0,0,1-2.841,2.92,8.221,8.221,0,0,1-4.183,1.026,9.077,9.077,0,0,1-3.236-.631,7.7,7.7,0,0,1-2.683-1.815,8.95,8.95,0,0,1-1.815-2.683,7.64,7.64,0,0,1-.631-3.236,9.079,9.079,0,0,1,.631-3.236,8.548,8.548,0,0,1,4.5-4.5,7.64,7.64,0,0,1,3.236-.631,7.74,7.74,0,0,1,5.6,2.21l-2.289,2.21a4.461,4.461,0,0,0-3.315-1.263,4.967,4.967,0,0,0-2.6.71,5.44,5.44,0,0,0-1.894,1.894,5.248,5.248,0,0,0-.71,2.683,5.239,5.239,0,0,0,2.6,4.577,4.967,4.967,0,0,0,2.6.71,6.155,6.155,0,0,0,1.736-.237,5.3,5.3,0,0,0,1.342-.631,3.03,3.03,0,0,0,.868-.868,2.957,2.957,0,0,0,.552-.947,1.8,1.8,0,0,0,.237-.868h-4.735Z" transform="translate(-214.5 -683)"/></svg>