<svg xmlns="http://www.w3.org/2000/svg" viewBox="0 0 10.276 16.442"><defs><style>.a{fill:#000000;}</style></defs><path class="a" d="M9.249,0a.933.933,0,0,1,.719.308.933.933,0,0,1,.308.719V15.415a1.054,1.054,0,0,1-1.028,1.028H1.028a.933.933,0,0,1-.719-.308A.933.933,0,0,1,0,15.415V1.028A.933.933,0,0,1,.308.308.933.933,0,0,1,1.028,0ZM8.529,12.332V2.775H1.747v9.557ZM4.419,15.106a.933.933,0,0,0,.719.308.933.933,0,0,0,.719-.308.993.993,0,0,0,0-1.439.933.933,0,0,0-.719-.308.933.933,0,0,0-.719.308.993.993,0,0,0,0,1.439Z" transform="translate(0 0)"/></svg>