<svg xmlns="http://www.w3.org/2000/svg" viewBox="0 0 60 60"><title>short-flourish-l</title><path d="M6.16,38.45a1.6,1.6,0,0,1-2.52-.73,2,2,0,0,1,1.59-2.53C8,34.64,8.94,38.63,6.82,40a3.83,3.83,0,0,1-5.43-1.88c-1-2.81.72-5,2.85-6.68,4.45-3.42,10.42-5.07,15.91-5.81a40.36,40.36,0,0,1,17,1.39,39,39,0,0,1,14,7.34c4,3.36,7.26,8,6.91,13.39C57.74,53,54.55,58,48.86,58.23c-2.61.1-5.62-.71-7.22-2.9a7.39,7.39,0,0,1-.53-7.17,5.55,5.55,0,0,1,6.79-2.8,4.45,4.45,0,0,1,2.82,6.07,3.64,3.64,0,0,1-5.93,1.08,3.08,3.08,0,0,1,0-3.85c1.06-1.11,2.8-.63,3.78.33-2.11-2.31-5.28-.61-4.79,2.39s4.52,3.63,6.57,1.86a5.46,5.46,0,0,0,.41-7.32c-1.85-2.14-5.42-2.54-7.92-1.39s-3.82,4-3.91,6.76a8,8,0,0,0,3.8,7.21,11.71,11.71,0,0,0,8.64,1.15A10.45,10.45,0,0,0,58,54.59a15.74,15.74,0,0,0-1.13-17.12c-3.48-4.89-8.94-8.29-14.43-10.55a42.73,42.73,0,0,0-19.53-3.26A38.6,38.6,0,0,0,5.07,29.35C2.86,30.79.28,32.89,0,35.69a4.9,4.9,0,0,0,4.83,5.62c2.76,0,5-3,3.11-5.43A2.71,2.71,0,0,0,4.69,35,2.16,2.16,0,0,0,3.5,37.84,1.68,1.68,0,0,0,6.16,38.45Z" transform="translate(0 0)"/><path d="M6.16,21.55a1.6,1.6,0,0,0-2.52.73,2,2,0,0,0,1.59,2.53C8,25.36,8.94,21.37,6.82,20a3.83,3.83,0,0,0-5.43,1.88c-1,2.81.72,5,2.85,6.68C8.69,32,14.66,33.6,20.15,34.34a40.36,40.36,0,0,0,17-1.39,39,39,0,0,0,14-7.34c4-3.36,7.26-8,6.91-13.39C57.74,7,54.55,2,48.86,1.77c-2.61-.1-5.62.71-7.22,2.9a7.39,7.39,0,0,0-.53,7.17,5.55,5.55,0,0,0,6.79,2.8,4.45,4.45,0,0,0,2.82-6.07,3.64,3.64,0,0,0-5.93-1.08,3.08,3.08,0,0,0,0,3.85c1.06,1.11,2.8.63,3.78-.33-2.11,2.31-5.28.61-4.79-2.39S48.34,5,50.39,6.76a5.46,5.46,0,0,1,.41,7.32c-1.85,2.14-5.42,2.54-7.92,1.39S39.06,11.42,39,8.71a8,8,0,0,1,3.8-7.21A11.71,11.71,0,0,1,51.41.35,10.45,10.45,0,0,1,58,5.41a15.74,15.74,0,0,1-1.13,17.12c-3.48,4.89-8.94,8.29-14.43,10.55a42.73,42.73,0,0,1-19.53,3.26A38.6,38.6,0,0,1,5.07,30.65C2.86,29.21.28,27.11,0,24.31a4.9,4.9,0,0,1,4.83-5.62c2.76,0,5,3,3.11,5.43A2.71,2.71,0,0,1,4.69,25,2.16,2.16,0,0,1,3.5,22.16,1.68,1.68,0,0,1,6.16,21.55Z" transform="translate(0 0)"/></svg>