<svg xmlns="http://www.w3.org/2000/svg" viewBox="0 0 60 60"><title>short-flourish-r</title><path d="M53.84,38.45a1.6,1.6,0,0,0,2.52-.73,2,2,0,0,0-1.59-2.53c-2.8-.55-3.71,3.44-1.59,4.84a3.83,3.83,0,0,0,5.43-1.88c1-2.81-.72-5-2.85-6.68-4.45-3.42-10.42-5.07-15.91-5.81a40.36,40.36,0,0,0-17,1.39,39,39,0,0,0-14,7.34c-4,3.36-7.26,8-6.91,13.39C2.26,53,5.45,58,11.14,58.23c2.61.1,5.62-.71,7.22-2.9a7.39,7.39,0,0,0,.53-7.17,5.55,5.55,0,0,0-6.79-2.8,4.45,4.45,0,0,0-2.82,6.07,3.64,3.64,0,0,0,5.93,1.08,3.08,3.08,0,0,0,0-3.85c-1.06-1.11-2.8-.63-3.78.33,2.11-2.31,5.28-.61,4.79,2.39S11.66,55,9.61,53.24a5.46,5.46,0,0,1-.41-7.32c1.85-2.14,5.42-2.54,7.92-1.39s3.82,4,3.91,6.76a8,8,0,0,1-3.8,7.21,11.71,11.71,0,0,1-8.64,1.15A10.45,10.45,0,0,1,2,54.59,15.74,15.74,0,0,1,3.15,37.47c3.48-4.89,8.94-8.29,14.43-10.55a42.73,42.73,0,0,1,19.53-3.26,38.6,38.6,0,0,1,17.82,5.69c2.21,1.44,4.79,3.54,5,6.34a4.9,4.9,0,0,1-4.83,5.62c-2.76,0-5-3-3.11-5.43A2.71,2.71,0,0,1,55.31,35a2.16,2.16,0,0,1,1.19,2.85A1.68,1.68,0,0,1,53.84,38.45Z" transform="translate(0 0)"/><path d="M53.84,21.55a1.6,1.6,0,0,1,2.52.73,2,2,0,0,1-1.59,2.53c-2.8.55-3.71-3.44-1.59-4.84a3.83,3.83,0,0,1,5.43,1.88c1,2.81-.72,5-2.85,6.68C51.31,32,45.34,33.6,39.85,34.34a40.36,40.36,0,0,1-17-1.39,39,39,0,0,1-14-7.34c-4-3.36-7.26-8-6.91-13.39C2.26,7,5.45,2,11.14,1.77c2.61-.1,5.62.71,7.22,2.9a7.39,7.39,0,0,1,.53,7.17,5.55,5.55,0,0,1-6.79,2.8A4.45,4.45,0,0,1,9.28,8.57a3.64,3.64,0,0,1,5.93-1.08,3.08,3.08,0,0,1,0,3.85c-1.06,1.11-2.8.63-3.78-.33,2.11,2.31,5.28.61,4.79-2.39S11.66,5,9.61,6.76a5.46,5.46,0,0,0-.41,7.32c1.85,2.14,5.42,2.54,7.92,1.39S20.94,11.42,21,8.71a8,8,0,0,0-3.8-7.21A11.71,11.71,0,0,0,8.59.35,10.45,10.45,0,0,0,2,5.41,15.74,15.74,0,0,0,3.15,22.53c3.48,4.89,8.94,8.29,14.43,10.55a42.73,42.73,0,0,0,19.53,3.26,38.6,38.6,0,0,0,17.82-5.69c2.21-1.44,4.79-3.54,5-6.34a4.9,4.9,0,0,0-4.83-5.62c-2.76,0-5,3-3.11,5.43a2.71,2.71,0,0,0,3.27.89,2.16,2.16,0,0,0,1.19-2.85A1.68,1.68,0,0,0,53.84,21.55Z" transform="translate(0 0)"/></svg>