<svg xmlns="http://www.w3.org/2000/svg" viewBox="0 0 60 60"><defs><style>.a{fill:#b40e1b;}</style></defs><title>side-flourish-l</title><path class="a" d="M55,31a80.26,80.26,0,0,0-15.72,1.8,16.12,16.12,0,0,1-2,.37A9.73,9.73,0,0,1,35.2,33c-.75-.13-1.53-.33-2.31-.49a12.06,12.06,0,0,0-2.33-.35,7.33,7.33,0,0,0-4.09,1c-1.26.6-2.52,1.21-3.73,1.92s-2.4,1.43-3.58,2.18-2.3,1.57-3.37,2.46A50.39,50.39,0,0,0,9.67,45.4,43.78,43.78,0,0,0,.83,59.17c2.18-1.66,4.26-3.3,6.36-4.85s4.21-3,6.33-4.44,4.26-2.74,6.44-4,4.37-2.41,6.61-3.46l1.68-.8,1.7-.74c.56-.27,1.15-.46,1.69-.77a7.21,7.21,0,0,0,1.51-1.24c1-1,1.8-2.43,2.83-3.46a6.68,6.68,0,0,1,3.5-1.94A62.26,62.26,0,0,1,55,31Z"/><path class="a" d="M57.08,32.74a48.94,48.94,0,0,0-8.7,3.15c-.7.33-1.39.7-2.07,1.06a9.35,9.35,0,0,1-1,.55,5.59,5.59,0,0,1-1.22.29c-.44.05-.92.06-1.42.07s-1,0-1.46.09a4.18,4.18,0,0,0-2.41,1,27.2,27.2,0,0,0-6,8,20.75,20.75,0,0,0-2.25,9.56c2.32-2.39,4.31-4.63,6.37-6.71s4.12-4,6.24-5.86a3.75,3.75,0,0,0,1.14-2,18.59,18.59,0,0,1,.82-2.59,4,4,0,0,1,1.61-1.7c.63-.42,1.27-.84,1.93-1.23A34.49,34.49,0,0,1,57.08,32.74Z"/><path class="a" d="M60,34.52A47.2,47.2,0,0,0,54.56,38c-.44.32-.88.65-1.3,1a4.1,4.1,0,0,1-1.53.84c-.61.21-1.31.37-1.91.62a3,3,0,0,0-1.39,1.14A19,19,0,0,0,45.83,48,14.48,14.48,0,0,0,46,54.86c1.36-1.93,2.46-3.7,3.6-5.37S51.85,46.23,53,44.7a2.72,2.72,0,0,0,.49-1.44c.05-.58,0-1.25.11-1.84a2.83,2.83,0,0,1,.62-1.52c.31-.42.64-.83,1-1.24A20.84,20.84,0,0,1,60,34.52Z"/><path class="a" d="M55,29.05a80.26,80.26,0,0,1-15.72-1.8,16.12,16.12,0,0,0-2-.37A9.73,9.73,0,0,0,35.2,27c-.75.13-1.53.33-2.31.49a12.06,12.06,0,0,1-2.33.35,7.33,7.33,0,0,1-4.09-1c-1.26-.6-2.52-1.21-3.73-1.92s-2.4-1.43-3.58-2.18-2.3-1.57-3.37-2.46A50.39,50.39,0,0,1,9.67,14.6,43.78,43.78,0,0,1,.83.83C3,2.49,5.09,4.13,7.19,5.68s4.21,3,6.33,4.44,4.26,2.74,6.44,4,4.37,2.41,6.61,3.46l1.68.8,1.7.74c.56.27,1.15.46,1.69.77a7.21,7.21,0,0,1,1.51,1.24c1,1,1.8,2.43,2.83,3.46a6.68,6.68,0,0,0,3.5,1.94A62.26,62.26,0,0,0,55,29.05Z"/><path class="a" d="M57.08,27.26a48.94,48.94,0,0,1-8.7-3.15c-.7-.33-1.39-.7-2.07-1.06a9.35,9.35,0,0,0-1-.55,5.59,5.59,0,0,0-1.22-.29c-.44-.05-.92-.06-1.42-.07s-1,0-1.46-.09a4.18,4.18,0,0,1-2.41-1,27.2,27.2,0,0,1-6-7.95,20.75,20.75,0,0,1-2.25-9.56c2.32,2.39,4.31,4.63,6.37,6.71s4.12,4,6.24,5.86a3.75,3.75,0,0,1,1.14,2,18.59,18.59,0,0,0,.82,2.59,4,4,0,0,0,1.61,1.7c.63.42,1.27.84,1.93,1.23A34.49,34.49,0,0,0,57.08,27.26Z"/><path class="a" d="M60,25.48a47.2,47.2,0,0,1-5.44-3.43c-.44-.32-.88-.65-1.3-1a4.1,4.1,0,0,0-1.53-.84c-.61-.21-1.31-.37-1.91-.62a3,3,0,0,1-1.39-1.14A19,19,0,0,1,45.83,12,14.48,14.48,0,0,1,46,5.14c1.36,1.93,2.46,3.7,3.6,5.37S51.85,13.77,53,15.3a2.72,2.72,0,0,1,.49,1.44c.05.58,0,1.25.11,1.84a2.83,2.83,0,0,0,.62,1.52c.31.42.64.83,1,1.24A20.84,20.84,0,0,0,60,25.48Z"/></svg>