<svg xmlns="http://www.w3.org/2000/svg" viewBox="0 0 60 60"><defs><style>.a{fill:#b40e1b;}</style></defs><title>side-flourish-r</title><path class="a" d="M5,31a80.26,80.26,0,0,1,15.72,1.8,16.12,16.12,0,0,0,2,.37A9.73,9.73,0,0,0,24.8,33c.75-.13,1.53-.33,2.31-.49a12.06,12.06,0,0,1,2.33-.35,7.33,7.33,0,0,1,4.09,1c1.26.6,2.52,1.21,3.73,1.92s2.4,1.43,3.58,2.18,2.3,1.57,3.37,2.46a50.39,50.39,0,0,1,6.12,5.64,43.78,43.78,0,0,1,8.84,13.77c-2.18-1.66-4.26-3.3-6.36-4.85s-4.21-3-6.33-4.44-4.26-2.74-6.44-4-4.37-2.41-6.61-3.46l-1.68-.8-1.7-.74c-.56-.27-1.15-.46-1.69-.77a7.21,7.21,0,0,1-1.51-1.24c-1-1-1.8-2.43-2.83-3.46a6.68,6.68,0,0,0-3.5-1.94A62.26,62.26,0,0,0,5,31Z"/><path class="a" d="M2.92,32.74a48.94,48.94,0,0,1,8.7,3.15c.7.33,1.39.7,2.07,1.06a9.35,9.35,0,0,0,1,.55,5.59,5.59,0,0,0,1.22.29c.44.05.92.06,1.42.07s1,0,1.46.09a4.18,4.18,0,0,1,2.41,1,27.2,27.2,0,0,1,6,8,20.75,20.75,0,0,1,2.25,9.56c-2.32-2.39-4.31-4.63-6.37-6.71s-4.12-4-6.24-5.86a3.75,3.75,0,0,1-1.14-2,18.59,18.59,0,0,0-.82-2.59,4,4,0,0,0-1.61-1.7c-.63-.42-1.27-.84-1.93-1.23A34.49,34.49,0,0,0,2.92,32.74Z"/><path class="a" d="M0,34.52A47.2,47.2,0,0,1,5.44,38c.44.32.88.65,1.3,1a4.1,4.1,0,0,0,1.53.84c.61.21,1.31.37,1.91.62a3,3,0,0,1,1.39,1.14A19,19,0,0,1,14.17,48,14.48,14.48,0,0,1,14,54.86c-1.36-1.93-2.46-3.7-3.6-5.37S8.15,46.23,7,44.7a2.72,2.72,0,0,1-.49-1.44c0-.58,0-1.25-.11-1.84a2.83,2.83,0,0,0-.62-1.52c-.31-.42-.64-.83-1-1.24A20.84,20.84,0,0,0,0,34.52Z"/><path class="a" d="M5,29.05a80.26,80.26,0,0,0,15.72-1.8,16.12,16.12,0,0,1,2-.37A9.73,9.73,0,0,1,24.8,27c.75.13,1.53.33,2.31.49a12.06,12.06,0,0,0,2.33.35,7.33,7.33,0,0,0,4.09-1c1.26-.6,2.52-1.21,3.73-1.92s2.4-1.43,3.58-2.18,2.3-1.57,3.37-2.46a50.39,50.39,0,0,0,6.12-5.64A43.78,43.78,0,0,0,59.17.83C57,2.49,54.91,4.13,52.81,5.68s-4.21,3-6.33,4.44-4.26,2.74-6.44,4-4.37,2.41-6.61,3.46l-1.68.8-1.7.74c-.56.27-1.15.46-1.69.77a7.21,7.21,0,0,0-1.51,1.24c-1,1-1.8,2.43-2.83,3.46a6.68,6.68,0,0,1-3.5,1.94A62.26,62.26,0,0,1,5,29.05Z"/><path class="a" d="M2.92,27.26a48.94,48.94,0,0,0,8.7-3.15c.7-.33,1.39-.7,2.07-1.06a9.35,9.35,0,0,1,1-.55A5.59,5.59,0,0,1,16,22.21c.44-.05.92-.06,1.42-.07s1,0,1.46-.09a4.18,4.18,0,0,0,2.41-1,27.2,27.2,0,0,0,6-7.95,20.75,20.75,0,0,0,2.25-9.56c-2.32,2.39-4.31,4.63-6.37,6.71s-4.12,4-6.24,5.86a3.75,3.75,0,0,0-1.14,2,18.59,18.59,0,0,1-.82,2.59,4,4,0,0,1-1.61,1.7c-.63.42-1.27.84-1.93,1.23A34.49,34.49,0,0,1,2.92,27.26Z"/><path class="a" d="M0,25.48a47.2,47.2,0,0,0,5.44-3.43c.44-.32.88-.65,1.3-1a4.1,4.1,0,0,1,1.53-.84c.61-.21,1.31-.37,1.91-.62a3,3,0,0,0,1.39-1.14A19,19,0,0,0,14.17,12,14.48,14.48,0,0,0,14,5.14c-1.36,1.93-2.46,3.7-3.6,5.37S8.15,13.77,7,15.3a2.72,2.72,0,0,0-.49,1.44c0,.58,0,1.25-.11,1.84a2.83,2.83,0,0,1-.62,1.52c-.31.42-.64.83-1,1.24A20.84,20.84,0,0,1,0,25.48Z"/></svg>